<?xml version="1.0" encoding="UTF-8" standalone="no"?>
<!-- Created with Inkscape (http://www.inkscape.org/) -->

<svg
   xmlns:dc="http://purl.org/dc/elements/1.1/"
   xmlns:cc="http://creativecommons.org/ns#"
   xmlns:rdf="http://www.w3.org/1999/02/22-rdf-syntax-ns#"
   xmlns:svg="http://www.w3.org/2000/svg"
   xmlns="http://www.w3.org/2000/svg"
   xmlns:sodipodi="http://sodipodi.sourceforge.net/DTD/sodipodi-0.dtd"
   xmlns:inkscape="http://www.inkscape.org/namespaces/inkscape"
   width="68pt"
   height="68pt"
   viewBox="0 0 23.988888 23.988889"
   version="1.1"
   id="svg36"
   inkscape:version="0.92.3 (2405546, 2018-03-11)"
   sodipodi:docname="icon.svg"
   inkscape:export-filename="C:\Users\p3tri\Dropbox\WebPages\homepage\static\img\icon-512.png"
   inkscape:export-xdpi="542.11761"
   inkscape:export-ydpi="542.11761">
  <defs
     id="defs30" />
  <sodipodi:namedview
     id="base"
     pagecolor="#ffffff"
     bordercolor="#666666"
     borderopacity="1.0"
     inkscape:pageopacity="0.0"
     inkscape:pageshadow="2"
     inkscape:zoom="15.839192"
     inkscape:cx="79.72025"
     inkscape:cy="45.476209"
     inkscape:document-units="mm"
     inkscape:current-layer="layer1"
     showgrid="false"
     fit-margin-top="0"
     fit-margin-left="0"
     fit-margin-right="0"
     fit-margin-bottom="0"
     units="pt"
     inkscape:window-width="3840"
     inkscape:window-height="2066"
     inkscape:window-x="-11"
     inkscape:window-y="-11"
     inkscape:window-maximized="1" />
  <metadata
     id="metadata33">
    <rdf:RDF>
      <cc:Work
         rdf:about="">
        <dc:format>image/svg+xml</dc:format>
        <dc:type
           rdf:resource="http://purl.org/dc/dcmitype/StillImage" />
        <dc:title></dc:title>
      </cc:Work>
    </rdf:RDF>
  </metadata>
  <g
     inkscape:label="Layer 1"
     inkscape:groupmode="layer"
     id="layer1"
     transform="translate(597.44783,23.58546)">
    <g
       style="fill:#848484"
       id="g25"
       transform="matrix(0.26458333,0,0,0.26458333,-598.72292,-24.690168)">
      <path
         id="path2"
         d="m 41.8,90.2 c 1.3,2.4 4.3,4.2 7.9,4.2 4.7,0 8.5,-3 8.5,-6.6 h -17 c 0,0.8 0.2,1.7 0.6,2.4 z"
         inkscape:connector-curvature="0" />
      <path
         id="path4"
         d="m 59.8,82.5 -20.2,1.1 c -0.6,0 -1,0.5 -1,1.1 0,0.6 0.5,1 1.1,1 0,0 0,0 0.1,0 L 60,84.6 c 0.6,0 1,-0.5 1,-1.1 -0.2,-0.6 -0.7,-1 -1.2,-1 z"
         inkscape:connector-curvature="0" />
      <path
         id="path6"
         d="m 59.8,78.3 -20.2,1.1 c -0.6,0 -1,0.5 -1,1.1 0,0.6 0.5,1 1.1,1 0,0 0,0 0.1,0 L 60,80.4 c 0.6,0 1,-0.5 1,-1.1 -0.2,-0.6 -0.7,-1.1 -1.2,-1 z"
         inkscape:connector-curvature="0" />
      <path
         id="path8"
         d="M 61.7,41.5 C 60.7,34.9 55.6,26.8 42.1,17.7 17.2,49.7 39.2,59.3 46.8,61.6 44.6,52.7 43.4,37.7 44,29.3 c 1.2,7.2 3.9,18.7 7.4,27 -0.6,-8 3.9,-12.5 10.3,-14.8 z"
         inkscape:connector-curvature="0" />
      <path
         id="path10"
         d="M 48.1,5 C 31.3,5.9 17.9,19.7 17.4,36.4 17,50.5 26.3,60.1 34.1,65.7 c 1.9,1.4 4,4.6 4.6,8.2 0,0.3 0,0.6 0.1,0.9 0.3,0.9 1.2,1.4 2.1,1.4 h 17.4 c 0.9,0 1.8,-0.5 2.1,-1.4 0.1,-0.4 0.1,-0.6 0.1,-0.9 0.4,-2.8 1.8,-5.3 3.2,-6.9 6.8,0.3 15.4,-3.4 14.8,-24.3 -28.7,-0.9 -24.9,15.8 -23,20.9 4,-4.4 8.7,-8.1 13.9,-11 -4.1,3.7 -7.3,8.1 -9.9,12.9 -1.3,1.8 -2.3,4 -2.9,6.4 h -14 C 41.5,67.4 38.8,63.8 36.5,62.1 29.5,57.2 21,48.5 21.6,36 22.3,21.5 34.1,9.8 48.6,9.2 64.3,8.6 77.4,21 77.8,36.5 c 0,0.2 0,0.3 0,0.5 0,0.5 -0.1,1.9 -0.1,2.5 -0.1,0.6 0.4,1.1 1,1.1 H 81 c 0.5,0 0.8,-0.3 0.9,-0.8 0.1,-0.6 0.2,-2.3 0.2,-2.5 C 82.1,19 66.7,4.1 48.1,5 Z"
         inkscape:connector-curvature="0" />
    </g>
  </g>
</svg>
